<svg xmlns="http://www.w3.org/2000/svg" version="1.1" xmlns:xlink="http://www.w3.org/1999/xlink" xmlns:svgjs="http://svgjs.dev/svgjs" width="1000" height="1000" viewBox="0 0 1000 1000"><rect width="1000" height="1000" fill="#fbcd08"></rect><g transform="matrix(0.7,0,0,0.7,149.57575757575756,282.1265587044535)"><svg viewBox="0 0 396 247" data-background-color="#fbcd08" preserveAspectRatio="xMidYMid meet" height="623" width="1000" xmlns="http://www.w3.org/2000/svg" xmlns:xlink="http://www.w3.org/1999/xlink"><defs></defs><g id="tight-bounds" transform="matrix(1,0,0,1,0.2400000000000091,-0.09999999999999432)"><svg viewBox="0 0 395.52 247.2" height="247.2" width="395.52"><g><svg></svg></g><g><svg viewBox="0 0 395.52 247.2" height="247.2" width="395.52"><g transform="matrix(3.6219147855009606, 0, 0, 3.6219147855009606, 106.98394381752381, 1)"><svg xmlns="http://www.w3.org/2000/svg" xmlns:xlink="http://www.w3.org/1999/xlink" version="1.1" x="0" y="0" viewBox="24.937000274658203 16.149999618530273 50.12600326538086 67.6989974975586" enable-background="new 0 0 100 100" xml:space="preserve" height="67.6989974975586" width="50.12600326538086" class="icon-none" data-fill-palette-color="accent" id="none"><g fill="#372e18" data-fill-palette-color="accent"><path d="M26.937 37.208h-1.25c-0.414 0-0.75 0.336-0.75 0.751v6.596c0 0.414 0.336 0.75 0.75 0.75h1.25c0.415 0 0.751-0.336 0.751-0.75v-6.596C27.688 37.544 27.352 37.208 26.937 37.208z" fill="#372e18" data-fill-palette-color="accent"></path><path d="M74.313 37.208h-1.25c-0.414 0-0.75 0.336-0.75 0.751v6.596c0 0.414 0.336 0.75 0.75 0.75h1.25c0.414 0 0.75-0.336 0.75-0.75v-6.596C75.063 37.544 74.727 37.208 74.313 37.208z" fill="#372e18" data-fill-palette-color="accent"></path><path d="M66.719 16.15H33.281c-2.263 0-4.104 1.755-4.104 3.913v59.872c0 2.158 1.841 3.914 4.104 3.914h33.438c2.263 0 4.104-1.756 4.104-3.914V20.063C70.822 17.905 68.981 16.15 66.719 16.15zM68.822 41.256v4.013 1 7.39 26.277c0 1.055-0.943 1.914-2.104 1.914H33.281c-1.161 0-2.104-0.859-2.104-1.914V53.658v-7.39-1-4.013V20.063c0-1.055 0.944-1.913 2.104-1.913h33.438c1.16 0 2.104 0.858 2.104 1.913V41.256z" fill="#372e18" data-fill-palette-color="accent"></path><rect x="34.878" y="61.359" width="30.243" height="1" fill="#372e18" data-fill-palette-color="accent"></rect><path d="M50 52.004c2.88 0 5.215-2.336 5.215-5.216 0-2.666-2.009-4.841-4.592-5.152v5.152h-1.246v-5.152c-2.583 0.312-4.593 2.486-4.593 5.152C44.784 49.668 47.119 52.004 50 52.004z" fill="#372e18" data-fill-palette-color="accent"></path><path d="M43.686 34.65c2.036-2.037 2.036-5.34 0-7.377-1.886-1.885-4.844-2.002-6.891-0.396l3.643 3.643-0.881 0.882-3.644-3.644c-1.605 2.047-1.489 5.006 0.396 6.891C38.346 36.687 41.648 36.687 43.686 34.65z" fill="#372e18" data-fill-palette-color="accent"></path><path d="M65.204 30.345c-0.312-2.582-2.486-4.592-5.152-4.592-2.881 0-5.216 2.335-5.216 5.215 0 2.881 2.335 5.216 5.216 5.216 2.666 0 4.841-2.009 5.152-4.592h-5.152v-1.247H65.204z" fill="#372e18" data-fill-palette-color="accent"></path><circle cx="50" cy="30.418" r="1.4" fill="#372e18" data-fill-palette-color="accent"></circle><path d="M49.999 65.494c-3.411 0-6.188 2.775-6.188 6.188s2.776 6.188 6.188 6.188c3.412 0 6.188-2.775 6.188-6.188S53.411 65.494 49.999 65.494zM49.999 76.869c-2.86 0-5.188-2.326-5.188-5.188 0-2.859 2.327-5.188 5.188-5.188s5.188 2.328 5.188 5.188C55.188 74.543 52.859 76.869 49.999 76.869z" fill="#372e18" data-fill-palette-color="accent"></path><circle cx="50" cy="71.682" r="3.9" fill="#372e18" data-fill-palette-color="accent"></circle></g></svg></g><rect width="348.05760000000004" height="35.66514657649184" fill="#fbcd08" y="105.76742671175407" x="23.731199999999973" data-fill-palette-color="quaternary"></rect><g transform="matrix(1,0,0,1,39.55199999999999,111.48673092979126)"><svg viewBox="0 0 316.416 24.226538140417457" height="24.226538140417457" width="316.416"><g><svg viewBox="0 0 316.416 24.226538140417457" height="24.226538140417457" width="316.416"><g><svg viewBox="0 0 316.416 24.226538140417457" height="24.226538140417457" width="316.416"><g><svg viewBox="0 0 316.416 24.226538140417457" height="24.226538140417457" width="316.416"><g><svg viewBox="0 0 316.416 24.226538140417457" height="24.226538140417457" width="316.416"><g><svg viewBox="0 0 316.416 24.226538140417457" height="24.226538140417457" width="316.416"><g transform="matrix(1,0,0,1,0,0)"><svg width="316.416" viewBox="5 -39.54999923706055 526.9600219726562 40.349998474121094" height="24.226538140417457" data-palette-color="#372e18"><path d="M6.5 0L6.5 0Q5.85 0 5.43-0.43 5-0.85 5-1.5L5-1.5 5-37.55Q5-38.2 5.43-38.63 5.85-39.05 6.5-39.05L6.5-39.05Q7.5-39.05 7.85-38.3L7.85-38.3 25.55-3.35 23.8-3.35 41.25-38.3Q41.7-39.05 42.6-39.05L42.6-39.05Q43.25-39.05 43.65-38.63 44.05-38.2 44.05-37.55L44.05-37.55 44.05-1.5Q44.05-0.85 43.65-0.43 43.25 0 42.6 0L42.6 0Q41.95 0 41.5-0.43 41.05-0.85 41.05-1.5L41.05-1.5 41.05-33.95 41.8-33.7 25.85-1.2Q25.5-0.5 24.55-0.5L24.55-0.5Q23.65-0.5 23.15-1.45L23.15-1.45 7-33.7 8-33.95 8-1.5Q8-0.85 7.58-0.43 7.15 0 6.5 0ZM69.05 0.8L69.05 0.8Q64.65 0.8 61.27-0.93 57.9-2.65 55.97-5.73 54.05-8.8 54.05-12.75L54.05-12.75 54.05-37.55Q54.05-38.25 54.47-38.65 54.9-39.05 55.55-39.05L55.55-39.05Q56.25-39.05 56.65-38.65 57.05-38.25 57.05-37.55L57.05-37.55 57.05-12.75Q57.05-9.65 58.57-7.28 60.1-4.9 62.82-3.55 65.55-2.2 69.05-2.2L69.05-2.2Q72.6-2.2 75.3-3.55 78-4.9 79.55-7.28 81.1-9.65 81.1-12.75L81.1-12.75 81.1-37.55Q81.1-38.25 81.52-38.65 81.95-39.05 82.6-39.05L82.6-39.05Q83.3-39.05 83.7-38.65 84.1-38.25 84.1-37.55L84.1-37.55 84.1-12.75Q84.1-8.8 82.17-5.73 80.25-2.65 76.85-0.93 73.45 0.8 69.05 0.8ZM105.8 0.5L105.8 0.5Q102.65 0.5 100.02-0.38 97.4-1.25 95.5-2.88 93.6-4.5 92.5-6.7L92.5-6.7Q92.2-7.3 92.47-7.85 92.75-8.4 93.4-8.6L93.4-8.6Q93.95-8.8 94.5-8.55 95.05-8.3 95.35-7.75L95.35-7.75Q96.25-6.15 97.72-4.95 99.2-3.75 101.22-3.13 103.25-2.5 105.8-2.5L105.8-2.5Q108.65-2.5 110.72-3.45 112.8-4.4 113.92-6.25 115.05-8.1 115.05-10.75L115.05-10.75Q115.05-14.05 112.67-16.32 110.3-18.6 105.45-19.25L105.45-19.25Q99.85-20.05 96.7-22.88 93.55-25.7 93.55-29.75L93.55-29.75Q93.55-32.7 95.02-34.9 96.5-37.1 99.17-38.33 101.85-39.55 105.35-39.55L105.35-39.55Q107.95-39.55 110.15-38.7 112.35-37.85 114-36.48 115.65-35.1 116.55-33.6L116.55-33.6Q116.9-33.05 116.72-32.43 116.55-31.8 115.9-31.55L115.9-31.55Q115.35-31.35 114.8-31.53 114.25-31.7 113.9-32.2L113.9-32.2Q113.2-33.25 112.1-34.25 111-35.25 109.35-35.9 107.7-36.55 105.35-36.55L105.35-36.55Q101.25-36.55 98.9-34.7 96.55-32.85 96.55-29.45L96.55-29.45Q96.55-27.65 97.52-26.18 98.5-24.7 100.6-23.65 102.7-22.6 105.95-22.05L105.95-22.05Q112.4-20.95 115.22-18.07 118.05-15.2 118.05-10.75L118.05-10.75Q118.05-8.15 117.17-6.05 116.3-3.95 114.67-2.5 113.05-1.05 110.8-0.28 108.55 0.5 105.8 0.5ZM127.79 0L127.79 0Q127.14 0 126.72-0.43 126.29-0.85 126.29-1.5L126.29-1.5 126.29-37.55Q126.29-38.2 126.72-38.63 127.14-39.05 127.79-39.05L127.79-39.05Q128.44-39.05 128.87-38.63 129.29-38.2 129.29-37.55L129.29-37.55 129.29-1.5Q129.29-0.85 128.87-0.43 128.44 0 127.79 0ZM156.84 0.5L156.84 0.5Q152.84 0.5 149.32-1.07 145.79-2.65 143.09-5.43 140.39-8.2 138.84-11.83 137.29-15.45 137.29-19.55L137.29-19.55Q137.29-23.6 138.79-27.23 140.29-30.85 142.97-33.63 145.64-36.4 149.19-37.98 152.74-39.55 156.84-39.55L156.84-39.55Q160.29-39.55 163.39-38.45 166.49-37.35 169.19-35.1L169.19-35.1Q169.64-34.75 169.64-34.13 169.64-33.5 169.24-33.02 168.84-32.55 168.14-32.55L168.14-32.55Q167.94-32.55 167.74-32.63 167.54-32.7 167.34-32.83 167.14-32.95 166.89-33.15L166.89-33.15Q164.89-34.95 162.34-35.75 159.79-36.55 156.84-36.55L156.84-36.55Q153.49-36.55 150.49-35.18 147.49-33.8 145.19-31.43 142.89-29.05 141.59-26 140.29-22.95 140.29-19.55L140.29-19.55Q140.29-16.05 141.59-12.95 142.89-9.85 145.17-7.5 147.44-5.15 150.44-3.83 153.44-2.5 156.84-2.5L156.84-2.5Q159.79-2.5 162.37-3.4 164.94-4.3 167.19-6.15L167.19-6.15Q167.59-6.5 168.14-6.4 168.69-6.3 169.09-5.9 169.49-5.5 169.49-4.85L169.49-4.85Q169.49-4.55 169.44-4.3 169.39-4.05 169.14-3.8L169.14-3.8Q166.69-1.35 163.47-0.43 160.24 0.5 156.84 0.5ZM175.09 0L175.09 0Q174.14 0 173.76-0.75 173.39-1.5 173.74-2.15L173.74-2.15 188.89-38Q189.29-39.05 190.34-39.05L190.34-39.05Q191.34-39.05 191.79-38L191.79-38 206.99-2.15Q207.39-1.45 206.94-0.73 206.49 0 205.64 0L205.64 0Q205.14 0 204.81-0.23 204.49-0.45 204.24-0.95L204.24-0.95 189.54-36 191.14-36 176.49-0.95Q176.29-0.45 175.94-0.23 175.59 0 175.09 0ZM201.94-9.8L178.79-9.8 179.99-12.5 200.79-12.5 201.94-9.8ZM236.34 0L214.29 0Q213.69 0 213.24-0.43 212.79-0.85 212.79-1.5L212.79-1.5 212.79-37.55Q212.79-38.2 213.24-38.63 213.69-39.05 214.29-39.05L214.29-39.05Q214.94-39.05 215.36-38.63 215.79-38.2 215.79-37.55L215.79-37.55 215.79-2.7 236.34-2.7Q237.04-2.7 237.44-2.33 237.84-1.95 237.84-1.35L237.84-1.35Q237.84-0.75 237.44-0.38 237.04 0 236.34 0L236.34 0ZM270.43 0.5L270.43 0.5Q267.28 0.5 264.66-0.38 262.03-1.25 260.13-2.88 258.23-4.5 257.13-6.7L257.13-6.7Q256.83-7.3 257.11-7.85 257.38-8.4 258.03-8.6L258.03-8.6Q258.58-8.8 259.13-8.55 259.68-8.3 259.98-7.75L259.98-7.75Q260.88-6.15 262.36-4.95 263.83-3.75 265.86-3.13 267.88-2.5 270.43-2.5L270.43-2.5Q273.28-2.5 275.36-3.45 277.43-4.4 278.56-6.25 279.68-8.1 279.68-10.75L279.68-10.75Q279.68-14.05 277.31-16.32 274.93-18.6 270.08-19.25L270.08-19.25Q264.48-20.05 261.33-22.88 258.18-25.7 258.18-29.75L258.18-29.75Q258.18-32.7 259.66-34.9 261.13-37.1 263.81-38.33 266.48-39.55 269.98-39.55L269.98-39.55Q272.58-39.55 274.78-38.7 276.98-37.85 278.63-36.48 280.28-35.1 281.18-33.6L281.18-33.6Q281.53-33.05 281.36-32.43 281.18-31.8 280.53-31.55L280.53-31.55Q279.98-31.35 279.43-31.53 278.88-31.7 278.53-32.2L278.53-32.2Q277.83-33.25 276.73-34.25 275.63-35.25 273.98-35.9 272.33-36.55 269.98-36.55L269.98-36.55Q265.88-36.55 263.53-34.7 261.18-32.85 261.18-29.45L261.18-29.45Q261.18-27.65 262.16-26.18 263.13-24.7 265.23-23.65 267.33-22.6 270.58-22.05L270.58-22.05Q277.03-20.95 279.86-18.07 282.68-15.2 282.68-10.75L282.68-10.75Q282.68-8.15 281.81-6.05 280.93-3.95 279.31-2.5 277.68-1.05 275.43-0.28 273.18 0.5 270.43 0.5ZM300.18 0L300.18 0Q299.53 0 299.1-0.43 298.68-0.85 298.68-1.5L298.68-1.5 298.68-39.05 301.68-39.05 301.68-1.5Q301.68-0.85 301.25-0.43 300.83 0 300.18 0ZM314.33-36.35L286.03-36.35Q285.43-36.35 285.05-36.73 284.68-37.1 284.68-37.7L284.68-37.7Q284.68-38.3 285.05-38.68 285.43-39.05 286.03-39.05L286.03-39.05 314.33-39.05Q314.93-39.05 315.3-38.68 315.68-38.3 315.68-37.7L315.68-37.7Q315.68-37.1 315.3-36.73 314.93-36.35 314.33-36.35L314.33-36.35ZM314.88 0L314.88 0Q313.93 0 313.55-0.75 313.18-1.5 313.53-2.15L313.53-2.15 328.68-38Q329.08-39.05 330.13-39.05L330.13-39.05Q331.13-39.05 331.58-38L331.58-38 346.78-2.15Q347.18-1.45 346.73-0.73 346.28 0 345.43 0L345.43 0Q344.93 0 344.6-0.23 344.28-0.45 344.03-0.95L344.03-0.95 329.33-36 330.93-36 316.28-0.95Q316.08-0.45 315.73-0.23 315.38 0 314.88 0ZM341.73-9.8L318.58-9.8 319.78-12.5 340.58-12.5 341.73-9.8ZM354.07 0L354.07 0Q353.42 0 353-0.43 352.57-0.85 352.57-1.5L352.57-1.5 352.57-37.55Q352.57-38.2 353-38.63 353.42-39.05 354.07-39.05L354.07-39.05Q354.77-39.05 355.22-38.55L355.22-38.55 380.62-5.5 380.62-37.55Q380.62-38.2 381.05-38.63 381.47-39.05 382.12-39.05L382.12-39.05Q382.72-39.05 383.17-38.63 383.62-38.2 383.62-37.55L383.62-37.55 383.62-1.5Q383.62-0.85 383.17-0.43 382.72 0 382.12 0L382.12 0Q381.77 0 381.5-0.13 381.22-0.25 381.02-0.45L381.02-0.45 355.57-33.55 355.57-1.5Q355.57-0.85 355.15-0.43 354.72 0 354.07 0ZM404.12 0L395.12 0Q394.47 0 394.05-0.43 393.62-0.85 393.62-1.5L393.62-1.5 393.62-37.55Q393.62-38.25 394.05-38.65 394.47-39.05 395.12-39.05L395.12-39.05 404.12-39.05Q408.42-39.05 412-37.63 415.57-36.2 418.2-33.58 420.82-30.95 422.25-27.4 423.67-23.85 423.67-19.55L423.67-19.55Q423.67-15.25 422.25-11.68 420.82-8.1 418.2-5.48 415.57-2.85 412-1.43 408.42 0 404.12 0L404.12 0ZM396.62-36.35L396.62-2.7 404.12-2.7Q408.97-2.7 412.7-4.9 416.42-7.1 418.55-10.9 420.67-14.7 420.67-19.55L420.67-19.55Q420.67-24.4 418.55-28.18 416.42-31.95 412.7-34.15 408.97-36.35 404.12-36.35L404.12-36.35 396.62-36.35ZM448.72 0.5L448.72 0.5Q444.42 0.5 440.77-1 437.12-2.5 434.39-5.23 431.67-7.95 430.17-11.6 428.67-15.25 428.67-19.55L428.67-19.55Q428.67-23.85 430.17-27.48 431.67-31.1 434.39-33.83 437.12-36.55 440.77-38.05 444.42-39.55 448.72-39.55L448.72-39.55Q453.02-39.55 456.64-38.05 460.27-36.55 462.99-33.83 465.72-31.1 467.22-27.48 468.72-23.85 468.72-19.55L468.72-19.55Q468.72-15.25 467.22-11.6 465.72-7.95 462.99-5.23 460.27-2.5 456.64-1 453.02 0.5 448.72 0.5ZM448.72-2.5L448.72-2.5Q452.32-2.5 455.42-3.78 458.52-5.05 460.84-7.38 463.17-9.7 464.44-12.8 465.72-15.9 465.72-19.55L465.72-19.55Q465.72-23.15 464.44-26.25 463.17-29.35 460.84-31.68 458.52-34 455.42-35.27 452.32-36.55 448.72-36.55L448.72-36.55Q445.07-36.55 441.97-35.27 438.87-34 436.54-31.68 434.22-29.35 432.94-26.25 431.67-23.15 431.67-19.55L431.67-19.55Q431.67-15.9 432.94-12.8 434.22-9.7 436.54-7.38 438.87-5.05 441.97-3.78 445.07-2.5 448.72-2.5ZM475.17 0L475.17 0Q474.52 0 474.09-0.43 473.67-0.85 473.67-1.5L473.67-1.5 473.67-37.55Q473.67-38.2 474.09-38.63 474.52-39.05 475.17-39.05L475.17-39.05 499.22-39.05Q499.82-39.05 500.27-38.63 500.72-38.2 500.72-37.55L500.72-37.55Q500.72-36.95 500.27-36.5 499.82-36.05 499.22-36.05L499.22-36.05 476.67-36.05 476.67-21.05 493.22-21.05Q493.87-21.05 494.29-20.63 494.72-20.2 494.72-19.55L494.72-19.55Q494.72-18.9 494.29-18.45 493.87-18 493.22-18L493.22-18 476.67-18 476.67-1.5Q476.67-0.85 476.24-0.43 475.82 0 475.17 0ZM506.41 0L506.41 0Q505.76 0 505.34-0.43 504.91-0.85 504.91-1.5L504.91-1.5 504.91-37.55Q504.91-38.2 505.34-38.63 505.76-39.05 506.41-39.05L506.41-39.05 530.46-39.05Q531.06-39.05 531.51-38.63 531.96-38.2 531.96-37.55L531.96-37.55Q531.96-36.95 531.51-36.5 531.06-36.05 530.46-36.05L530.46-36.05 507.91-36.05 507.91-21.05 524.46-21.05Q525.11-21.05 525.54-20.63 525.96-20.2 525.96-19.55L525.96-19.55Q525.96-18.9 525.54-18.45 525.11-18 524.46-18L524.46-18 507.91-18 507.91-1.5Q507.91-0.85 507.49-0.43 507.06 0 506.41 0Z" opacity="1" transform="matrix(1,0,0,1,0,0)" fill="#372e18" class="undefined-text-0" data-fill-palette-color="primary" id="text-0"></path></svg></g></svg></g></svg></g></svg></g><g></g></svg></g></svg></g></svg></g></svg></g></svg><rect width="395.52" height="247.2" fill="none" stroke="none" visibility="hidden"></rect></g></svg></g></svg>